<svg height="64" viewBox="0 0 64 64" width="64" xmlns="http://www.w3.org/2000/svg"><g fill="none" transform="translate(2 2)"><path d="m39.6676358 17h1.6676358c1.6568543 0 3 1.3431458 3 3 0 .104901-.0055021.2097298-.0164836.3140544l-.6511522 6.1859456c-.5952891 0-1.1218711-.3859253-1.3011314-.9535827zm-20 0-2.6988686 8.5464173c-.1792602.5676574-.7058423.9535827-1.3011314.9535827l-.6511522-6.1859456c-.0109815-.1043246-.0164836-.2091534-.0164836-.3140544 0-1.6568542 1.3431458-3 3-3z" fill="#e16381"/><path d="m20.3856741 21.4376846c-.1849609.3706243-.6353517.5211341-1.0059759.3361731-.3706243-.1849609-.5211341-.6353517-.3361731-1.0059759.6267139-1.2558075 1.3609309-2.3781911 2.202869-3.3657803.8553444-1.0033146 1.8561312-1.8448119 2.9996693-2.5224708.3563435-.2111686.816403-.093481 1.0275716.2628625s.0934811.8164029-.2628625 1.0275715c-1.0016442.5935728-1.8750436 1.3279583-2.6228893 2.2051775-.7612519.8929447-1.4287276 1.913302-2.0022091 3.0624424zm6.3643259-6.4376846c-.4142136 0-.75-.3357864-.75-.75s.3357864-.75.75-.75.75.3357864.75.75-.3357864.75-.75.75z" fill="#fff" opacity=".198498"/></g></svg>