<svg height="64" viewBox="0 0 64 64" width="64" xmlns="http://www.w3.org/2000/svg"><path d="m20.3856741 21.4376846c-.1849609.3706243-.6353517.5211341-1.0059759.3361731-.3706243-.1849609-.5211341-.6353517-.3361731-1.0059759.6267139-1.2558075 1.3609309-2.3781911 2.202869-3.3657803.8553444-1.0033146 1.8561312-1.8448119 2.9996693-2.5224708.3563435-.2111686.816403-.093481 1.0275716.2628625s.0934811.8164029-.2628625 1.0275715c-1.0016442.5935728-1.8750436 1.3279583-2.6228893 2.2051775-.7612519.8929447-1.4287276 1.913302-2.0022091 3.0624424zm6.3643259-6.4376846c-.4142136 0-.75-.3357864-.75-.75s.3357864-.75.75-.75.75.3357864.75.75-.3357864.75-.75.75z" fill="#fff" opacity=".198498" transform="translate(2 2)"/></svg>