<svg height="64" viewBox="0 0 64 64" width="64" xmlns="http://www.w3.org/2000/svg" xmlns:xlink="http://www.w3.org/1999/xlink"><defs><path id="a" d="m44 28c-.0070021-.0077801-.013997-.0155675-.0209846-.0233622-.0999686.0153823-.2023785.0233622-.3066521.0233622-1.1045695 0-2-.8954305-2-2 0-.3151488.0728915-.6132729.2027351-.8784327-.2296439.0919112-.4803046.1424708-.7427742.1424708-1.1045695 0-2-.8954305-2-2 0-.0803152.0047342-.1595247.0139386-.2373646-.3090375.7053897-1.0133632 1.19818-1.8327862 1.19818-.5816632 0-1.1053312-.2483069-1.4707863-.6447032l-.0120739.0048765c.0002917.0140623.0004383.0281603.0004383.0422925 0 1.1045695-.8954305 2-2 2-.7548877 0-1.4120936-.4182254-1.7525509-1.0356095-.0962526 1.0148803-.9509007 1.8088029-1.9909794 1.8088029-.9232363 0-1.7003644-.6255637-1.9306392-1.4759461-.2876335.7516516-1.0157631 1.2853943-1.8685551 1.2853943-1.0651469 0-1.9358169-.8326543-1.9966094-1.8825624-.0437483-.0074552-.0874324-.015028-.1310524-.0227185-.3565739.5488664-.9750789.9118727-1.6783685.9118727-1.0687371 0-1.9416841-.838277-1.9971965-1.8931864-.2799051-.10251-.5566458-.2108216-.8302219-.3249348.0115306.0868976.0174819.1755571.0174819.2656066 0 1.1045695-.8954305 2-2 2-.2624696 0-.5131303-.0505596-.7427742-.1424708.1298436.2651598.2027351.5632839.2027351.8784327 0 .7936752-.4623079 1.4793725-1.1323242 1.8024924v.224972c-2.2499752.2487221-4 2.1562588-4 4.4725356 0 2.4852814 2.0147186 4.5 4.5 4.5.0265719 0 .0530899-.0002303.0795523-.000689 1.2428976 4.1769898 4.3826849 7.537105 8.4204477 9.0814314v3.0623743c-.247834-.196826-.4668297-.4261287-.6515052-.6803625-.4843233-.1362944-.9614918-.2896718-1.4308141-.4594408-.856078.3147318-1.8342005.2935177-2.7187254-.1378939-.9212444-.4493209-1.5543623-1.2525943-1.8154657-2.1661917-.3361204-.2264214-.6652749-.4623916-.987075-.7075218-.9681206.1052345-1.9747384-.1954414-2.7428331-.9117013-.8219472-.7664781-1.1882055-1.8386302-1.0869205-2.8769883-.1690771-.2170584-.333948-.4375544-.4944904-.6613653-1.0515992-.1231917-2.0337403-.7243989-2.6038304-1.7118239-.61922172-1.0725234-.60076602-2.3382232-.0622686-3.3580772-.0464743-.1291253-.0917086-.2588425-.1356883-.3891372-1.09471939-.376166-1.97663683-1.291437-2.25620959-2.5023997-.30646655-1.3274524.19337901-2.6528436 1.17890313-3.4630525l-.00029688-.0090904c-1.08750011-.6494816-1.77858539-1.8730063-1.6841847-3.2229991.09545119-1.3650156.96815739-2.4902262 2.15543452-2.9734264-.84958824-.9390375-1.15246986-2.3107704-.66761992-3.5738477.49147003-1.2803232 1.65913744-2.102026 2.93917274-2.2140751-.5429802-1.1645676-.4151985-2.5866487.4478589-3.6524358.8514321-1.051431 2.1908284-1.4749943 3.4288529-1.2087481-.1751749-1.2698123.3629329-2.58820324 1.4973455-3.35337424 1.1241931-.75827779 2.5327495-.77006527 3.6399888-.14920718.206405-1.2619631 1.1053514-2.36135435 2.4109635-2.76052004 1.299718-.39736365 2.6533656.00591235 3.5305382.92780677.5678368-1.14227224 1.7466833-1.92724331 3.1088696-1.92724331s2.5410328.78497107 3.1088696 1.92724331c.8771726-.92189442 2.2308202-1.32517042 3.5305382-.92780677 1.3056121.39916569 2.2045585 1.49855694 2.4109635 2.76052004 1.1072393-.62085809 2.5157957-.60907061 3.6399888.14920718 1.1344126.765171 1.6725204 2.08356194 1.4973455 3.35337424 1.2380245-.2662462 2.5774208.1573171 3.4288529 1.2087481.8630574 1.0657871.9908391 2.4878682.4478589 3.6524358 1.2800353.1120491 2.4477027.9337519 2.9391727 2.2140751.48485 1.2630773.1819684 2.6348102-.6676199 3.5738477 1.1872772.4832002 2.0599833 1.6084108 2.1554345 2.9734264.0944007 1.3499928-.5966845 2.5735175-1.6841847 3.2229991l-.0002968.0090904c.9855241.8102089 1.4853696 2.1356001 1.1789031 3.4630525-.2795728 1.2109627-1.1614902 2.1262337-2.2562096 2.5023997-.0439797.1302947-.089214.2600119-.1356883.3891372.5384974 1.019854.5569531 2.2855538-.0622686 3.3580772-.5700901.987425-1.5522312 1.5886322-2.6038304 1.7118239-.1605424.2238109-.3254133.4443069-.4944904.6613653.101285 1.0383581-.2649733 2.1105102-1.0869205 2.8769883-.7680947.7162599-1.7747125 1.0169358-2.7428331.9117013-.3218001.2451302-.6509546.4811004-.987075.7075218-.2611034.9135974-.8942213 1.7168708-1.8154657 2.1661917-.8845249.4314116-1.8626474.4526257-2.7187254.1378939-.4693223.169769-.9464908.3231464-1.4308141.4594408-.1846755.2542338-.4036712.4835365-.6515052.6803625v-3.0623743c4.0377628-1.5443264 7.1775501-4.9044416 8.4204477-9.0814314.0264624.0004587.0529804.000689.0795523.000689 2.4852814 0 4.5-2.0147186 4.5-4.5 0-2.3162768-1.7500248-4.2238135-4-4.4725356z"/><mask id="b" fill="#fff"><use fill="none" xlink:href="#a"/></mask></defs><g fill="none" fill-rule="nonzero" transform="translate(2 2)"><use fill="#f27d65" xlink:href="#a"/><path d="m7 5h46v44h-46z" fill="#fff" mask="url(#b)" opacity=".258673"/></g></svg>