<svg height="64" viewBox="0 0 64 64" width="64" xmlns="http://www.w3.org/2000/svg" xmlns:xlink="http://www.w3.org/1999/xlink"><defs><path id="a" d="m44 26c-2.1770238-2.4189154-3.6519095-5.539969-4.4246569-9.3631607-2.2524451 3.6144855-5.2775594 6.2355391-9.0753431 7.8631607-4.6666667 2-9.5 2.3333333-14.5 1v.5274644c-.7344269.0811868-1.4155855.3391154-2 .7303101v-1.2577745c0-9.1126984 7.163444-16.5 16-16.5s16 7.3873016 16 16.5v1.2577745c-.5844145-.3911947-1.2655731-.6491233-2-.7303101zm-9 21.3131226v-3.2323802c4.0377628-1.5443264 7.1775501-4.9044416 8.4204477-9.0814314.0264624.0004587.0529804.000689.0795523.000689.9250733 0 1.784951-.2791358 2.5-.7577745v10.7577745c-3.1125645 1.2109897-6.7792312 1.9820305-11 2.3131226zm-10 0c-4.2207688-.3310921-7.8874355-1.1021329-11-2.3131226v-10.7577745c.715049.4786387 1.5749267.7577745 2.5.7577745.0265719 0 .0530899-.0002303.0795523-.000689 1.2428976 4.1769898 4.3826849 7.537105 8.4204477 9.0814314z"/><mask id="b" fill="#fff"><use fill="none" xlink:href="#a"/></mask></defs><g fill="none" fill-rule="nonzero" transform="translate(2 2)"><use fill="#362c47" xlink:href="#a"/><path d="m13 9h34v18h-34z" fill="#fff" mask="url(#b)" opacity=".258673"/></g></svg>