<svg height="64" viewBox="0 0 64 64" width="64" xmlns="http://www.w3.org/2000/svg" xmlns:xlink="http://www.w3.org/1999/xlink"><defs><path id="a" d="m44 26c-1.4124207-1.5693563-2.5292958-3.4342581-3.3506255-5.5947053-3.1914201 1.0855978-6.7412117 1.6283967-10.6493745 1.6283967-4.8482132 0-9.1449189-.8353281-12.8901172-2.5059842-.7145576 1.6810359-1.1098828 3.5304978-1.1098828 5.4722928v1.0274644c-.7344269.0811868-1.4155855.3391154-2 .7303101v-1.3759257c0-9.0474452 7.163444-16.3818488 16-16.3818488s16 7.3344036 16 16.3818488v1.3759257c-.5844145-.3911947-1.2655731-.6491233-2-.7303101zm-9 20.0605469v-1.9798045c4.0377628-1.5443264 7.1775501-4.9044416 8.4204477-9.0814314.0264624.0004587.0529804.000689.0795523.000689.9250733 0 1.784951-.2791358 2.5-.7577745v6.3759257c0 .4766585-.0198831.9485622-.0588465 1.4148891-3.6470512 2.0439212-7.2941023 3.3864234-10.9411535 4.0275066zm-10 0c-3.6470512-.6410832-7.2941023-1.9835854-10.9411535-4.0275066-.0389634-.4663269-.0588465-.9382306-.0588465-1.4148891v-6.3759257c.715049.4786387 1.5749267.7577745 2.5.7577745.0265719 0 .0530899-.0002303.0795523-.000689 1.2428976 4.1769898 4.3826849 7.537105 8.4204477 9.0814314z"/><mask id="b" fill="#fff"><use fill="none" xlink:href="#a"/></mask></defs><g fill="none" fill-rule="nonzero" transform="translate(2 2)"><use fill="#f29c65" xlink:href="#a"/><path d="m13 9h34v18h-34z" fill="#fff" mask="url(#b)" opacity=".258673"/></g></svg>