<svg height="64" viewBox="0 0 64 64" width="64" xmlns="http://www.w3.org/2000/svg"><g fill="none" transform="translate(2 2)"><path d="m42.5444924 18.777265c-2.2909687-4.609513-7.0477965-7.777265-12.5444924-7.777265s-10.2535237 3.167752-12.5444924 7.777265c-.0543983-.1197026-.097735-.2465707-.1284548-.3796326-.1766517-.7651628.1114665-1.5291373.6795368-1.9961534l-.0001711-.0052399c-.6268508-.3743705-1.0252023-1.0796278-.9707884-1.8577831.0550195-.7868147.5580599-1.4354022 1.2424236-1.7139258-.489715-.5412748-.6643003-1.3319614-.3848258-2.0600174.2832904-.7379967.9563508-1.21163801 1.6941815-1.27622477-.3129816-.67127356-.2393264-1.49098158.2581524-2.10531663.4907777-.60605999 1.262825-.85020796 1.9764402-.69673981-.1009733-.73193809.2091998-1.49187766.8630916-1.93293325.648001-.43708225 1.4599133-.44387672 2.0981419-.08600517.1189749-.72741372.6371405-1.36111869 1.3897142-1.59120355.7491761-.22904613 1.5294381.00340797 2.035053.5348012.3273094-.65842218 1.0068135-1.11089082 1.7919973-1.11089082s1.4646879.45246864 1.7919973 1.11089082c.5056149-.53139323 1.2858769-.76384733 2.035053-.5348012.7525737.23008486 1.2707393.86378983 1.3897142 1.59120355.6382286-.35787155 1.4501409-.35107708 2.0981419.08600517.6538918.44105559.9640649 1.20099516.8630916 1.93293325.7136152-.15346815 1.4856625.09067982 1.9764402.69673981.4974788.61433505.571134 1.43404307.2581524 2.10531663.7378307.06458676 1.4108911.53822807 1.6941815 1.27622477.2794745.728056.1048892 1.5187426-.3848258 2.0600174.6843637.2785236 1.1874041.9271111 1.2424236 1.7139258.0544139.7781553-.3439376 1.4834126-.9707884 1.8577831l-.0001711.0052399c.5680703.4670161.8561885 1.2309906.6795368 1.9961534-.0307198.1330619-.0740565.25993-.1284548.3796326z" fill="#e15c66"/><path d="m43.9340349 23.6322064c-2.1057592-5.0682184-7.10369-8.6322064-12.9340349-8.6322064h-2c-5.8303449 0-10.8282757 3.563988-12.9340349 8.6322064.6874709-7.0900847 6.663537-12.6322064 13.9340349-12.6322064s13.246564 5.5421217 13.9340349 12.6322064z" fill="#5ac4d4"/></g></svg>