<svg viewBox="0 0 64 64"><g fill="none"><path fill="#000" d="M46 28c-1.807-2.008-3.13-4.5-3.97-7.474-1.87 2.283-4.546 3.607-8.03 3.974-5.832.614-10.817-.327-14.953-2.822A13.959 13.959 0 0 0 18 27v1.027a4.474 4.474 0 0 0-2 .73V27.5C16 18.387 23.163 11 32 11s16 7.387 16 16.5v1.258a4.474 4.474 0 0 0-2-.73zm2 8.242V64H37V46.08A14.036 14.036 0 0 0 45.42 37h.08a4.48 4.48 0 0 0 2.5-.758zM27 64l-11.13-.068.13-27.69a4.48 4.48 0 0 0 2.58.757A14.036 14.036 0 0 0 27 46.081v5.464c.034 1.57.034 5.723 0 12.455z"/><path fill="#fff" d="M46 28c-1.807-2.008-3.13-4.5-3.97-7.474-1.87 2.283-4.546 3.607-8.03 3.974-5.832.614-10.817-.327-14.953-2.822A13.959 13.959 0 0 0 18 27v1.027a4.474 4.474 0 0 0-2 .73V27.5C16 18.387 23.163 11 32 11s16 7.387 16 16.5v1.258a4.474 4.474 0 0 0-2-.73z" opacity=".258"/></g></svg>