<svg height="64" viewBox="0 0 64 64" width="64" xmlns="http://www.w3.org/2000/svg" xmlns:xlink="http://www.w3.org/1999/xlink"><defs><path id="a" d="m31.7915605 7c.2548527-.81142139 1.0129111-1.4 1.9084395-1.4s1.6535868.58857861 1.9084395 1.4h.557978c.3086226-.70636191 1.0134549-1.2 1.8335825-1.2 1.0601849 0 1.9277007.82491466 1.9957071 1.8679038.0752374.03081164.1499647.06261272.2241659.09538705.3468595-.28925944.7931697-.46329085 1.280127-.46329085 1.1045695 0 2 .8954305 2 2 0 .26962016-.053352.52677929-.1500746.7614961.0515628.058674.1023741.1180246.152419.1780367.128517-.0259267.2614974-.0395328.3976556-.0395328 1.1045695 0 2 .8954305 2 2 0 .5708556-.2391654 1.0858511-.6227616 1.450252.0420259.1558057.0799734.3132849.1137208.4723162.7640792.2812987 1.3090408 1.015724 1.3090408 1.8774318 0 .8548436-.5363139 1.5844243-1.2908229 1.8706233l-.0474207.3240416c.6732112.3219285 1.1382436 1.0093247 1.1382436 1.8053351 0 .8044558-.4749525 1.4979805-1.1597414 1.815458.1028286.24089.1597414.5060696.1597414.784542 0 .0224775-.0003708.0448684-.0011066.0671669.2508246.3093513.4011066.7035421.4011066 1.1328331 0 .9335885-.7107457 1.7011734-1.6206602 1.7911779l-.2793398 1.9088221c-.4391757-.6587635-.8421873-1.4802656-1.2090347-2.4645062-.2079467-.2202452-.3609189-.4929527-.4369722-.796178-.516362-.3616472-.8539931-.9610525-.8539931-1.6393158 0-.3808375.106445-.7368134.2912063-1.0397991-.0072793-.0325108-.0145364-.0651215-.0217714-.097832-.743236-.2917815-1.2694349-1.015625-1.2694349-1.8623689 0-.3958606.1150086-.7648596.3134354-1.0754063-.2971893.1750166-.6435887.2754063-1.0134354.2754063-.5585997 0-1.0637121-.2290061-1.4265743-.5982555-.2842159.758417-1.0157778 1.2982555-1.8734257 1.2982555-.835894 0-1.552017-.5128002-1.8509404-1.2409717-.1036369.011128-.2075308.0218706-.3116816.0322278-.3066106.7110287-1.0138705 1.2087439-1.837378 1.2087439-.7428164 0-1.3910501-.4049569-1.7359763-1.0061459-.0764952.0012373-.153115.0022878-.2298593.0031514-.3453812.5994524-.9926467 1.0029945-1.7341644 1.0029945-.7814775 0-1.4582707-.4482071-1.7873387-1.1015808-.1375432-.0097982-.2741412-.0203052-.4097941-.0315211-.3229642.6704362-1.008885 1.1331019-1.8028672 1.1331019-.8576479 0-1.5892098-.5398385-1.8734257-1.2982555-.3628622.3692494-.8679746.5982555-1.4265743.5982555-.6624925 0-1.2497515-.3221126-1.6137054-.8182659-.0073026.0518151-.0148083.1035963-.022517.1553438.3914539.3650832.6362224.8854183.6362224 1.4629221 0 .8724018-.5585717 1.6143422-1.3375886 1.8876948.2132172.3180361.3375886.7006464.3375886 1.1123052 0 1.0146993-.7556497 1.8529072-1.7349125 1.9825869-.5056456.9862572-1.0940081 1.9587282-1.7650875 2.9174131l-.1875952-1.922851c-.8574093-.1376795-1.5124048-.880923-1.5124048-1.777149 0-.7740994.4886487-1.4340688 1.1743145-1.6882765l-.0122665-.1257316c-.9924037-.1176474-1.762048-.9619396-1.762048-1.9859919 0-.8891307.580199-1.6427486 1.3826438-1.9029006l-.0140234-.1437403c-.8972166-.1972442-1.5686204-.9968942-1.5686204-1.9533591 0-.9802073.7051503-1.795718 1.6358463-1.9669274.0132863-.0593902.027165-.1185784.0416301-.1775574-.5295848-.3597851-.8774764-.9670229-.8774764-1.6555152 0-1.1045695.8954305-2 2-2 .1147514 0 .2272457.0096641.3367133.0282228-.0882629-.2256661-.1367133-.47128637-.1367133-.7282228 0-1.1045695.8954305-2 2-2 .4513854 0 .8678453.14953432 1.2025443.4017678-.0016894-.03370944-.0025443-.06763879-.0025443-.1017678 0-1.1045695.8954305-2 2-2 .82329 0 1.5303937.4974523 1.8371349 1.20818054.0175053-.00074688.0350129-.00144265.0525225-.00208728.2529642-.81456642 1.0125742-1.40609326 1.9103426-1.40609326.8955284 0 1.6535868.58857861 1.9084395 1.4h.183121c.2548527-.81142139 1.0129111-1.4 1.9084395-1.4s1.6535868.58857861 1.9084395 1.4z"/><mask id="b" fill="#fff"><use fill="none" xlink:href="#a"/></mask></defs><g fill="none" fill-rule="nonzero" transform="translate(2 2)"><use fill="#dee1f5" xlink:href="#a"/><path d="m13 5h34v23h-34z" fill="#fff" mask="url(#b)" opacity=".258673"/></g></svg>