<svg viewBox="0 0 64 64"><defs><path id="a" d="M31.792 7a2 2 0 0 1 3.816 0h.558a2 2 0 0 1 3.83.668c.075.03.15.063.224.095a2 2 0 0 1 3.13 2.298l.152.179a2 2 0 0 1 1.775 3.41c.042.156.08.314.114.473a2 2 0 0 1 .018 3.748l-.047.324a2 2 0 0 1-.022 3.62 1.994 1.994 0 0 1 .159.852 1.8 1.8 0 0 1-1.22 2.924L44 27.5c-.44-.659-.842-1.48-1.209-2.465a1.797 1.797 0 0 1-.437-.796 1.998 1.998 0 0 1-.563-2.679 38.655 38.655 0 0 1-.022-.098 2 2 0 0 1-.956-2.937 1.994 1.994 0 0 1-2.44-.323 2 2 0 0 1-3.724.057l-.312.032a2 2 0 0 1-3.573.203l-.23.003a2 2 0 0 1-3.521-.099 36.13 36.13 0 0 1-.41-.031 2 2 0 0 1-3.676-.165 1.997 1.997 0 0 1-3.04-.22l-.023.155a2 2 0 0 1-.701 3.35 2 2 0 0 1-1.397 3.095A24.897 24.897 0 0 1 16 27.5l-.188-1.923a1.8 1.8 0 0 1-.338-3.465l-.012-.126a2 2 0 0 1-.38-3.889l-.013-.144a2 2 0 0 1 .067-3.92 8.93 8.93 0 0 1 .041-.177 2 2 0 0 1 1.46-3.627 2 2 0 0 1 3.066-2.326 2 2 0 0 1 3.835-.894 9 9 0 0 1 .052-.003A2 2 0 0 1 27.408 7h.184a2 2 0 0 1 3.816 0z"/><mask id="b" fill="#fff"><use fill="none"/></mask></defs><g fill="none" transform="translate(2 2)"><use fill="#362c47"/><path fill="#fff" d="M13 5h34v23H13z" mask="url(#b)" opacity=".259"/></g></svg>