<svg height="64" viewBox="0 0 64 64" width="64" xmlns="http://www.w3.org/2000/svg" xmlns:xlink="http://www.w3.org/1999/xlink"><defs><path id="a" d="m44 26c-1.8069195-2.0076884-3.1301415-4.4990742-3.9696661-7.4741576-1.8700152 2.2827499-4.5467932 3.6074691-8.0303339 3.9741576-5.8323009.6139264-10.8165642-.3268829-14.9527897-2.8224281-.6749644 1.6408483-1.0472103 3.4381669-1.0472103 5.3224281v1.0274644c-.7344269.0811868-1.4155855.3391154-2 .7303101v-1.2577745c0-9.1126984 7.163444-16.5 16-16.5s16 7.3873016 16 16.5v1.2577745c-.5844145-.3911947-1.2655731-.6491233-2-.7303101zm2 8.2422255v6.6039659c0 7.3120163-4.6121368 13.5131471-11 15.6783443v-12.4437933c4.0377628-1.5443264 7.1775501-4.9044416 8.4204477-9.0814314.0264624.0004587.0529804.000689.0795523.000689.9250733 0 1.784951-.2791358 2.5-.7577745zm-20.8696715 22.3258473c-6.4553641-2.124598-11.1303285-8.3602306-11.1303285-15.7218814v-6.6039659c.715049.4786387 1.5749267.7577745 2.5.7577745.0265719 0 .0530899-.0002303.0795523-.000689 1.2428976 4.1769898 4.3826849 7.537105 8.4204477 9.0814314v5.4642669c.0513559 2.3563461.0947987 4.6973673.1303285 7.0230635z"/><mask id="b" fill="#fff"><use fill="none" xlink:href="#a"/></mask></defs><g fill="none" fill-rule="nonzero" transform="translate(2 2)"><use fill="#e16381" xlink:href="#a"/><path d="m14 9h32v18h-32z" fill="#fff" mask="url(#b)" opacity=".258254"/></g></svg>