<svg viewBox="0 0 64 64"><defs><path id="a" d="M44 26c-1.807-2.008-3.13-4.5-3.97-7.474-1.87 2.283-4.546 3.607-8.03 3.974-5.832.614-10.817-.327-14.953-2.822A13.959 13.959 0 0 0 16 25v1.027a4.474 4.474 0 0 0-2 .73V25.5C14 16.387 21.163 9 30 9s16 7.387 16 16.5v1.258a4.474 4.474 0 0 0-2-.73zm2 8.242v6.604c0 7.312-4.612 13.513-11 15.679V44.08a14.036 14.036 0 0 0 8.42-9.082l.08.001a4.48 4.48 0 0 0 2.5-.758zM25.13 56.568C18.675 54.443 14 48.208 14 40.846v-6.604a4.48 4.48 0 0 0 2.58.757A14.036 14.036 0 0 0 25 44.081v5.464c.051 2.356.095 4.697.13 7.023z"/><mask id="b" fill="#fff"><use fill="none"/></mask></defs><g fill="none" transform="translate(2 2)"><use fill="#362c47"/><path fill="#fff" d="M14 9h32v18H14z" mask="url(#b)" opacity=".258"/></g></svg>