<svg viewBox="0 0 64 64"><g fill="none"><path fill="#000" d="M46 28c-1.807-2.008-3.13-4.5-3.97-7.474-1.87 2.283-4.546 3.607-8.03 3.974-5.832.614-10.817-.327-14.953-2.822A13.959 13.959 0 0 0 18 27v1.027a4.474 4.474 0 0 0-2 .73V27.5C16 18.387 23.163 11 32 11s16 7.387 16 16.5v1.258a4.474 4.474 0 0 0-2-.73zm2 8.242v6.604c0 7.312-4.612 13.513-11 15.679V46.08a14.036 14.036 0 0 0 8.42-9.082l.08.001a4.48 4.48 0 0 0 2.5-.758zM27.13 58.568C20.675 56.443 16 50.208 16 42.846v-6.604a4.48 4.48 0 0 0 2.58.757A14.036 14.036 0 0 0 27 46.081v5.464c.051 2.356.095 4.697.13 7.023z"/><path fill="#fff" d="M46 28c-1.807-2.008-3.13-4.5-3.97-7.474-1.87 2.283-4.546 3.607-8.03 3.974-5.832.614-10.817-.327-14.953-2.822A13.959 13.959 0 0 0 18 27v1.027a4.474 4.474 0 0 0-2 .73V27.5C16 18.387 23.163 11 32 11s16 7.387 16 16.5v1.258a4.474 4.474 0 0 0-2-.73z" opacity=".258"/></g></svg>