<svg height="64" viewBox="0 0 64 64" width="64" xmlns="http://www.w3.org/2000/svg"><g fill="none" transform="translate(2 2)"><path d="m39.0010765 11.8362032c.0560048-2.68030623 2.2901531-4.8362032 5.0380076-4.8362032 2.7830092 0 5.039084 2.21141297 5.039084 4.9393291 0 .0795504-.0019186.1586616-.0057128.2372916.01762 3.2017225.7073202 7.0802525 1.9275447 9.8233793-2.2560001-.6059765-4.3336241-1.6206795-6.2197012-2.9027636.7858573 1.9352671 1.2197012 4.0580658 1.2197012 6.2846124v1.3759257c-.5844145-.3911947-1.2655731-.6491233-2-.7303101v-.0274644c-1.8069195-2.0076884-3.1301415-4.4990742-3.9696661-7.4741576-1.8700152 2.2827499-4.5467932 3.6074691-8.0303339 3.9741576-5.8323009.6139264-10.8165642-.3268829-14.9527897-2.8224281-.6749644 1.6408483-1.0472103 3.4381669-1.0472103 5.3224281v1.0274644c-.7344269.0811868-1.4155855.3391154-2 .7303101v-1.3759257c0-2.2265466.4338439-4.3493453 1.2197012-6.2846124-1.8860771 1.2820841-3.9637011 2.2967871-6.2197012 2.9027636 1.2202245-2.7431268 1.9099247-6.6216568 1.9275447-9.8233793-.0037942-.07863-.0057128-.1577412-.0057128-.2372916 0-2.72791613 2.2560748-4.9393291 5.039084-4.9393291 2.7478545 0 4.9820028 2.15589697 5.0380076 4.8362032 2.564424-1.7898296 5.6634017-2.8362032 9.0010765-2.8362032s6.4366525 1.0463736 9.0010765 2.8362032z" fill="#675e97"/><path d="m39.0129724 11.5821629c4.1991061 2.9624172 6.9870276 8.1844842 6.9870276 14.1321228v1.0434888c-.5844145-.3911947-1.2655731-.6491233-2-.7303101v-.0274644c-1.8069195-2.0076884-3.1301415-4.4990742-3.9696661-7.4741576-1.8700152 2.2827499-4.5467932 3.6074691-8.0303339 3.9741576-5.8323009.6139264-10.8165642-.3268829-14.9527897-2.8224281-.6749644 1.6408483-1.0472103 3.4381669-1.0472103 5.3224281v1.0274644c-.7344269.0811868-1.4155855.3391154-2 .7303101v-1.0434888c0-5.9476386 2.7879215-11.1697056 6.9870276-14.1321228.0061319.0841149.0101151.1688125.0118959.2540403 2.564424-1.7898296 5.6634017-2.8362032 9.0010765-2.8362032s6.4366525 1.0463736 9.0010765 2.8362032c.0017808-.0852278.005764-.1699254.0118959-.2540403z" fill="#fff" opacity=".258673"/><path d="m16 14c0-2.7614237 2.2385763-5 5-5 1.1988186 0 2.2990965.42190313 3.1604521 1.1253279-3.1063009 1.2473493-5.7390541 3.4604777-7.5457717 6.2784851-.3918226-.7132911-.6146804-1.5325264-.6146804-2.403813zm23-5c2.7614237 0 5 2.2385763 5 5 0 .8712866-.2228578 1.6905219-.6146804 2.403813-1.8067176-2.8180074-4.4394708-5.0311358-7.5457717-6.2784851.8613556-.70342477 1.9616335-1.1253279 3.1604521-1.1253279z" fill="#f55d81"/></g></svg>