<svg height="64" viewBox="0 0 64 64" width="64" xmlns="http://www.w3.org/2000/svg"><g fill="none" transform="translate(2 2)"><path d="m40.2604351 12.6307399c3.0945293 1.3867589 5.0603367 4.6727369 4.6178351 8.2127503-.0057458.0459656-.0118945.09188-.0184456.1377378l-.8598246 6.018772c-2.8268359-1.6961016-4.6947517-5.5497735-5.6037473-11.5610158-1.4658881 1.5166447-3.4508432 2.5384593-5.6922765 2.7738361-1.823281.1914469-3.3912724.2871797-4.7039762.2871797-3 0-5.6666667-.5-8-1.5 0 3.6666667-1.3333333 7.1666667-4 10.5l-.9224501-8.5326634c-.5342452-4.9417685 3.0387583-9.38095478 7.9805268-9.91520003.3212758-.03473251.6441889-.05213657.9673366-.05213657h16.9745867c0 1.2844062-.2627226 2.5126441-.7395649 3.6307399z" fill="#f27d65"/><path d="m40.2604351 12.6307399c-.4467614 1.0475623-1.0814798 1.9984405-1.8641824 2.8082443-1.4658881 1.5166447-3.4508432 2.5384593-5.6922765 2.7738361-1.823281.1914469-3.3912724.2871797-4.7039762.2871797-3 0-5.6666667-.5-8-1.5 0 3.6666667-1.3333333 7.1666667-4 10.5l-.9224501-8.5326634c-.5342452-4.9417685 3.0387583-9.38095478 7.9805268-9.91520003.3212758-.03473251.6441889-.05213657.9673366-.05213657h16.9745867c0 1.2844062-.2627226 2.5126441-.7395649 3.6307399zm2.2043073 1.477435c1.7650954 1.6740879 2.7384131 4.1362325 2.4135278 6.7353153-.0057458.0459656-.0118945.09188-.0184456.1377378l-.8598246 6.018772c-2.2928943-1.3757366-3.9549048-4.1709614-4.9860317-8.3856746 1.5817566-1.0978745 2.7975566-2.6727096 3.4507741-4.5061505z" fill="#fff" opacity=".258673"/></g></svg>