<svg height="64" viewBox="0 0 64 64" width="64" xmlns="http://www.w3.org/2000/svg"><g fill="none" transform="translate(18 28)"><path d="m8.47257173 7.45791118 2.42312207-.82683098c1.2434536-.42429802 2.5900187.18545788 3.1043062 1.36982927.5142875-1.18437139 1.8608526-1.79412729 3.1043062-1.36982927l2.4231221.82683098c3.4654827-1.33080662 6.4247709-3.81680056 8.4694583-6.75613673.0020722.09915847.0031134.19857041.0031134.29822555v6c0 7.7319865-6.2680135 14-14 14s-14-6.2680135-14-14v-6c0-.09965514.00104123-.19906708.00311341-.29822555 2.04468741 2.93933617 5.00397559 5.42533011 8.46945832 6.75613673z" fill="#000"/><path d="m17.999058 11.4240753c.0006268.0252322.000942.0505416.000942.0759247 0 1.6568542-1.3431458 3-3 3h-2c-1.6568542 0-3-1.3431458-3-3 0-.0253831.0003152-.0506925.000942-.0759247l.8164934.2089563c.2201174.0563322.4464315.0848321.6736428.0848321 1.1303577 0 2.0994994-.6902478 2.5089218-1.6722399.4094224.9819921 1.3785641 1.6722399 2.5089218 1.6722399.2272113 0 .4535254-.0284999.6736428-.0848321z" fill="#fffefd"/></g></svg>