<svg height="168" viewBox="0 0 156 168" width="156" xmlns="http://www.w3.org/2000/svg"><path d="m89.805073 3.08327199 54 30.30275341c7.53527 4.2285079 12.194927 12.1593293 12.194927 20.7559885v59.7159721c0 8.596659-4.659657 16.527481-12.194927 20.755989l-54 30.302753c-7.3259212 4.111029-16.2842248 4.111029-23.610146 0l-54-30.302753c-7.53526997-4.228508-12.194927-12.15933-12.194927-20.755989v-59.7159721c0-8.5966592 4.65965703-16.5274806 12.194927-20.7559885l54-30.30275341c7.3259212-4.11102932 16.2842248-4.11102932 23.610146 0zm-80.805073 51.30049891v59.4742151c0 5.33677 2.897926 10.269094 7.599299 12.907326l53.2333248 29.872524c.6889768.266899 1.4236723.405136 2.1673762.405136 3.3137085 0 6-2.686291 6-6v-48.071351c0-7.8342799-4.3608877-15.0171862-11.3115925-18.6315528l-3.9625042-2.0605021c-.934508-.3978874-1.8572518-.8338901-2.7659776-1.3080079zm55.8290405 21.2682783c9.564678 4.9902667 16.803242 4.9902667 26.3679199 0l51.6981466-29.0233261c-1.273086-2.9149055-3.480935-5.402054-6.369655-7.0230944l-51.124751-28.673694c-4.5903189-2.57591294-10.2110831-2.57591294-14.801402 0l-51.0277398 28.673694c-2.8887203 1.6210404-5.0965694 4.1081889-6.3696549 7.0230944zm13.1709595-54.6520492c11.2500401 0 20.433902 5.5289753 20.9748091 12.4764404l.0251909 11.8985596c0 7.2487373-9.4020203 13.125-21 13.125s-21-5.8762627-21-13.125v-11.8985596c.566098-6.9474651 9.7499599-12.4764404 21-12.4764404zm.0024 21c9.742303 0 17.64-3.9488485 17.64-8.82s-7.897697-8.82-17.64-8.82-17.64 3.9488485-17.64 8.82 7.897697 8.82 17.64 8.82z" fill="#191d3f"/></svg>
