<svg height="33" viewBox="0 0 36 33" width="36" xmlns="http://www.w3.org/2000/svg"><g fill="none" fill-rule="evenodd" transform=""><path d="m7.83870972 1.07042024 10.12499998-1.07042024 10.125 1.07042024 7.8387096 10.52277526-17.9637096 20.9185515-17.9637097-20.9185515z" fill="#fdb300"/><g transform="translate(0 11.593195)"><path d="m7.27620305 0 10.68752285 20.9185584-17.9637259-20.9185584z" fill="#ea6c00"/><path d="m25.2398803 0 10.6875229 20.9185584-17.9637259-20.9185584z" fill="#ea6c00" transform="matrix(-1 0 0 1 53.89108 0)"/><path d="m7.27620305 0h21.37504565l-10.6875228 20.9185584z" fill="#fdad00"/></g><path d="m17.9637259 0-10.1250457 1.07040609-.56247715 10.52278171z" fill="#fdd231"/><path d="m28.6511935 0-10.1250456 1.07040609-.5624772 10.52278171z" fill="#fdd231" transform="matrix(-1 0 0 1 46.614864 0)"/><path d="m28.0886773 11.5931878 7.8387716-10.52278171-.5625686 10.52278171z" fill="#fdad00" transform="matrix(-1 0 0 1 64.016126 0)"/><path d="m0 11.5931878 7.8386802-10.52278171-.56247715 10.52278171z" fill="#fdad00"/><path d="m17.9637259 0-10.68752285 11.5931878h21.37504565z" fill="#feeeb7"/></g></svg>