<svg viewBox="0 0 64 64"><defs><mask id="a" fill="#fff"><use fill="none"/></mask></defs><g fill="none" transform="translate(14 49)"><use fill="#5a45ff"/><path fill="#000" d="M28 1.538l1.647.507A8.99 8.99 0 0 1 32 3.163V15h-4zM24 15h-4V9.71a7.017 7.017 0 0 0 4-3.102zm-8 0h-4V6.608a7.017 7.017 0 0 0 4 3.102zm-8 0H4V3.163a8.99 8.99 0 0 1 2.353-1.118L8 1.538z" mask="url(#a)" opacity=".404"/><path fill="#fff" d="M33.068 4a9.013 9.013 0 0 1 2.535 4H22.899a6.982 6.982 0 0 0 2.03-4zM36 12v3H0v-3zM.397 8a9.013 9.013 0 0 1 2.535-4h8.139a6.982 6.982 0 0 0 2.03 4z" opacity=".18"/></g></svg>