<svg height="64" width="64" xmlns="http://www.w3.org/2000/svg" xmlns:xlink="http://www.w3.org/1999/xlink"><defs><path id="a" d="M12.473 9.458l2.423-.827A2.504 2.504 0 0 1 18 10.001a2.504 2.504 0 0 1 3.104-1.37l2.423.827c3.466-1.33 6.425-3.817 8.47-6.756C31.999 2.8 32 2.9 32 3v6c0 7.732-6.268 14-14 14S4 16.732 4 9V3c0-.1.001-.2.003-.298 2.045 2.94 5.004 5.425 8.47 6.756z"/><mask id="b" fill="#fff"><use fill="none" xlink:href="#a"/></mask></defs><g fill="none" transform="translate(14 26)"><use fill="#362c47" xlink:href="#a"/><path d="M12.473 9.458l-2.812.96a1 1 0 0 0 .075 1.915l5.081 1.3A2.717 2.717 0 0 0 18 12.046a2.718 2.718 0 0 0 3.183 1.587l5.081-1.3a1 1 0 0 0 .075-1.916l-2.812-.96c3.466-1.33 6.425-3.816 8.47-6.755C31.999 2.8 32 2.9 32 3v6c0 7.732-6.268 14-14 14S4 16.732 4 9V3c0-.1.001-.2.003-.298 2.045 2.94 5.004 5.425 8.47 6.756z" fill="#fff" mask="url(#b)" opacity=".26"/><path d="M22 13.424v.076a3 3 0 0 1-3 3h-2a3 3 0 0 1-3-3.076l.817.209A2.717 2.717 0 0 0 18 12.046a2.718 2.718 0 0 0 3.183 1.587z" fill="#fffefd" mask="url(#b)"/></g></svg>