<svg height="64" viewBox="0 0 64 64" width="64" xmlns="http://www.w3.org/2000/svg"><g transform="translate(17 15)"><path d="m24.6676358 4h1.6676358c1.6568543 0 3 1.34314575 3 3 0 .10490098-.0055021.20972976-.0164836.31405435l-.6511522 6.18594565c-.5952891 0-1.1218711-.3859253-1.3011314-.9535827zm-19.99999999 0-2.69886863 8.5464173c-.17926023.5676574-.70584224.9535827-1.30113136.9535827l-.65115218-6.18594565c-.01098154-.10432459-.01648364-.20915337-.01648364-.31405435 0-1.65685425 1.34314575-3 3-3z"/><path d="m5.38567414 8.43768464c-.18496095.37062423-.63535174.52113405-1.00597597.3361731-.37062423-.18496096-.52113405-.63535174-.33617309-1.00597597.62671389-1.2558075 1.36093091-2.37819104 2.20286907-3.36578022.85534439-1.00331463 1.85613119-1.84481196 2.99966924-2.5224708.35634351-.21116861.81640301-.09348109 1.02757161.26286242s.0934811.81640297-.2628625 1.02757158c-1.0016442.5935728-1.87504359 1.32795823-2.6228893 2.20517745-.76125195.89294467-1.42872764 1.91330202-2.00220906 3.06244244zm6.36432586-6.43768464c-.4142136 0-.75-.33578644-.75-.75s.3357864-.75.75-.75.75.33578644.75.75-.3357864.75-.75.75z"/></g></svg>