<svg height="64" viewBox="0 0 64 64" width="64" xmlns="http://www.w3.org/2000/svg"><path d="m2.38567414 8.43768464c-.18496095.37062423-.63535174.52113405-1.00597597.3361731-.37062423-.18496096-.52113405-.63535174-.33617309-1.00597597.62671389-1.2558075 1.36093091-2.37819104 2.20286907-3.36578022.85534439-1.00331463 1.85613119-1.84481196 2.99966924-2.5224708.35634351-.21116861.81640298-.09348109 1.02757158.26286242s.09348109.81640297-.26286242 1.02757158c-1.00164425.5935728-1.87504364 1.32795823-2.62288935 2.20517745-.76125195.89294467-1.42872764 1.91330202-2.00220906 3.06244244zm6.36432586-6.43768464c-.41421356 0-.75-.33578644-.75-.75s.33578644-.75.75-.75.75.33578644.75.75-.33578644.75-.75.75z" transform="translate(20 15)"/></svg>