<svg height="64" viewBox="0 0 64 64" width="64" xmlns="http://www.w3.org/2000/svg"><path d="m30 17c-2.1770238-2.4189154-3.6519095-5.539969-4.4246569-9.36316074-2.2524451 3.61448554-5.2775594 6.23553914-9.0753431 7.86316074-4.6666667 2-9.5 2.3333333-14.5 1v.5274644c-.7344269.0811868-1.41558553.3391154-2 .7303101v-1.2577745c0-9.11269837 7.163444-16.5 16-16.5s16 7.38730163 16 16.5v1.2577745c-.5844145-.3911947-1.2655731-.6491233-2-.7303101zm-9 21.3131226v-3.2323802c4.0377628-1.5443264 7.1775501-4.9044416 8.4204477-9.0814314.0264624.0004587.0529804.000689.0795523.000689.9250733 0 1.784951-.2791358 2.5-.7577745v10.7577745c-3.1125645 1.2109897-6.7792312 1.9820305-11 2.3131226zm-10 0c-4.22076883-.3310921-7.88743549-1.1021329-11-2.3131226v-10.7577745c.71504902.4786387 1.57492668.7577745 2.5.7577745.02657186 0 .05308992-.0002303.07955231-.000689 1.24289761 4.1769898 4.38268492 7.537105 8.42044769 9.0814314z" transform="translate(16 11)"/></svg>