<svg height="64" viewBox="0 0 64 64" width="64" xmlns="http://www.w3.org/2000/svg"><path d="m30 17c-1.4124207-1.5693563-2.5292958-3.4342581-3.3506255-5.5947053-3.1914201 1.0855978-6.7412117 1.6283967-10.6493745 1.6283967-4.8482132 0-9.14491888-.8353281-12.89011716-2.5059842-.71455763 1.6810359-1.10988284 3.5304978-1.10988284 5.4722928v1.0274644c-.7344269.0811868-1.41558553.3391154-2 .7303101v-1.3759257c0-9.04744524 7.163444-16.3818488 16-16.3818488s16 7.33440356 16 16.3818488v1.3759257c-.5844145-.3911947-1.2655731-.6491233-2-.7303101zm-9 20.0605469v-1.9798045c4.0377628-1.5443264 7.1775501-4.9044416 8.4204477-9.0814314.0264624.0004587.0529804.000689.0795523.000689.9250733 0 1.784951-.2791358 2.5-.7577745v6.3759257c0 .4766585-.0198831.9485622-.0588465 1.4148891-3.6470512 2.0439212-7.2941023 3.3864234-10.9411535 4.0275066zm-10 0c-3.64705116-.6410832-7.29410233-1.9835854-10.94115349-4.0275066-.03896339-.4663269-.05884651-.9382306-.05884651-1.4148891v-6.3759257c.71504902.4786387 1.57492668.7577745 2.5.7577745.02657186 0 .05308992-.0002303.07955231-.000689 1.24289761 4.1769898 4.38268492 7.537105 8.42044769 9.0814314z" transform="translate(16 11)"/></svg>