<svg height="64" viewBox="0 0 64 64" width="64" xmlns="http://www.w3.org/2000/svg"><path d="m18.7915605 2c.2548527-.81142139 1.0129111-1.4 1.9084395-1.4s1.6535868.58857861 1.9084395 1.4h.557978c.3086226-.70636191 1.0134549-1.2 1.8335825-1.2 1.0601849 0 1.9277007.82491466 1.9957071 1.8679038.0752374.03081164.1499647.06261272.2241659.09538705.3468595-.28925944.7931697-.46329085 1.280127-.46329085 1.1045695 0 2 .8954305 2 2 0 .26962016-.053352.52677929-.1500746.76149612.0515628.05867401.1023741.11802459.152419.1780367.128517-.02592672.2614974-.03953282.3976556-.03953282 1.1045695 0 2 .8954305 2 2 0 .57085557-.2391654 1.08585107-.6227616 1.45025201.0420259.15580567.0799734.31328492.1137208.47231617.7640792.28129874 1.3090408 1.01572402 1.3090408 1.87743182 0 .8548436-.5363139 1.5844243-1.2908229 1.8706233l-.0474207.3240416c.6732112.3219285 1.1382436 1.0093247 1.1382436 1.8053351 0 .8044558-.4749525 1.4979805-1.1597414 1.815458.1028286.24089.1597414.5060696.1597414.784542 0 .0224775-.0003708.0448684-.0011066.0671669.2508246.3093513.4011066.7035421.4011066 1.1328331 0 .9335885-.7107457 1.7011734-1.6206602 1.7911779l-.2793398 1.9088221c-.4391757-.6587635-.8421873-1.4802656-1.2090347-2.4645062-.2079467-.2202452-.3609189-.4929527-.4369722-.796178-.516362-.3616472-.8539931-.9610525-.8539931-1.6393158 0-.3808375.106445-.7368134.2912063-1.0397991-.0072793-.0325108-.0145364-.0651215-.0217714-.097832-.743236-.2917815-1.2694349-1.015625-1.2694349-1.8623689 0-.3958606.1150086-.7648596.3134354-1.0754063-.2971893.1750166-.6435887.2754063-1.0134354.2754063-.5585997 0-1.0637121-.2290061-1.4265743-.5982555-.2842159.758417-1.0157778 1.2982555-1.8734257 1.2982555-.835894 0-1.552017-.5128002-1.8509404-1.2409717-.1036369.011128-.2075308.0218706-.3116816.0322278-.3066106.7110287-1.0138705 1.2087439-1.837378 1.2087439-.7428164 0-1.3910501-.4049569-1.7359763-1.0061459-.0764952.0012373-.153115.0022878-.2298593.0031514-.3453812.5994524-.9926467 1.0029945-1.7341644 1.0029945-.7814775 0-1.4582707-.4482071-1.7873387-1.1015808-.1375432-.0097982-.2741412-.0203052-.4097941-.0315211-.3229642.6704362-1.008885 1.1331019-1.8028672 1.1331019-.8576479 0-1.5892098-.5398385-1.87342566-1.2982555-.36286226.3692494-.86797467.5982555-1.42657434.5982555-.66249247 0-1.24975152-.3221126-1.61370536-.8182659-.00730268.0518151-.01480836.1035963-.02251702.1553438.3914539.3650832.63622238.8854183.63622238 1.4629221 0 .8724018-.5585717 1.6143422-1.33758861 1.8876948.2132172.3180361.33758861.7006464.33758861 1.1123052 0 1.0146993-.75564972 1.8529072-1.73491246 1.9825869-.50564561.9862572-1.09400813 1.9587282-1.76508754 2.9174131l-.18759522-1.922851c-.85740928-.1376795-1.51240478-.880923-1.51240478-1.777149 0-.7740994.48864872-1.4340688 1.17431449-1.6882765l-.0122665-.1257316c-.99240373-.1176474-1.76204799-.9619396-1.76204799-1.9859919 0-.8891307.58019902-1.6427486 1.38264384-1.9029006l-.01402344-.1437403c-.89721656-.1972442-1.5686204-.9968942-1.5686204-1.9533591 0-.9802073.70515029-1.795718 1.63584628-1.9669274.01328632-.05939018.02716503-.1185784.04163017-.17755741-.52958485-.35978506-.87747645-.96702291-.87747645-1.65551519 0-1.1045695.8954305-2 2-2 .11475143 0 .22724568.00966411.33671326.02822285-.08826288-.22566618-.13671326-.47128642-.13671326-.72822285 0-1.1045695.8954305-2 2-2 .45138545 0 .86784528.14953432 1.20254433.4017678-.00168947-.03370944-.00254433-.06763879-.00254433-.1017678 0-1.1045695.8954305-2 2-2 .82328998 0 1.5303937.4974523 1.8371349 1.20818054.0175053-.00074688.0350129-.00144265.0525225-.00208728.2529642-.81456642 1.0125742-1.40609326 1.9103426-1.40609326.8955284 0 1.6535868.58857861 1.9084395 1.4h.183121c.2548527-.81142139 1.0129111-1.4 1.9084395-1.4s1.6535868.58857861 1.9084395 1.4z" transform="translate(15 7)"/></svg>