<svg height="64" viewBox="0 0 64 64" width="64" xmlns="http://www.w3.org/2000/svg"><g fill="none" transform="translate(18 4)"><path d="m26.5444924 16.777265c-2.2909687-4.609513-7.0477965-7.777265-12.5444924-7.777265-5.49669592 0-10.25352372 3.167752-12.54449235 7.777265-.05439831-.1197026-.09773506-.2465707-.12845481-.3796326-.17665174-.7651628.11146645-1.5291373.67953675-1.9961534l-.00017112-.0052399c-.62685074-.3743705-1.02520226-1.0796278-.97078834-1.8577831.05501944-.7868147.55805987-1.4354022 1.24242352-1.7139258-.4897149-.5412748-.66430023-1.33196141-.38482574-2.06001737.28329041-.73799674.95635076-1.21163804 1.69418152-1.2762248-.31298161-.67127356-.23932638-1.49098158.25815234-2.10531663.4907777-.60605999 1.26282506-.85020796 1.97644023-.69673981-.10097333-.73193809.20919975-1.49187766.86309155-1.93293325.64800109-.43708225 1.4599133-.44387672 2.09814196-.08600517.11897486-.72741372.63714051-1.36111869 1.38971419-1.59120355.7491761-.22904613 1.5294381.00340797 2.035053.5348012.3273094-.65842218 1.0068135-1.11089082 1.7919973-1.11089082s1.4646879.45246864 1.7919973 1.11089082c.5056149-.53139323 1.2858769-.76384733 2.035053-.5348012.7525737.23008486 1.2707393.86378983 1.3897142 1.59120355.6382286-.35787155 1.4501409-.35107708 2.0981419.08600517.6538918.44105559.9640649 1.20099516.8630916 1.93293325.7136152-.15346815 1.4856625.09067982 1.9764402.69673981.4974788.61433505.571134 1.43404307.2581524 2.10531663.7378307.06458676 1.4108911.53822806 1.6941815 1.2762248.2794745.72805596.1048892 1.51874257-.3848258 2.06001737.6843637.2785236 1.1874041.9271111 1.2424236 1.7139258.0544139.7781553-.3439376 1.4834126-.9707884 1.8577831l-.0001711.0052399c.5680703.4670161.8561885 1.2309906.6795368 1.9961534-.0307198.1330619-.0740565.25993-.1284548.3796326z" fill="#000"/><path d="m27.9340349 21.6322064c-2.1057592-5.0682184-7.10369-8.6322064-12.9340349-8.6322064h-2c-5.83034486 0-10.82827571 3.563988-12.93403488 8.6322064.68747091-7.0900847 6.66353696-12.6322064 13.93403488-12.6322064 7.2704979 0 13.246564 5.5421217 13.9340349 12.6322064z" fill="#f55d81"/></g></svg>