<svg height="64" viewBox="0 0 64 64" width="64" xmlns="http://www.w3.org/2000/svg"><g fill="none" transform="translate(11 9)"><path d="m30.0010765 4.83620316c.0560048-2.68030619 2.2901531-4.83620316 5.0380076-4.83620316 2.7830092 0 5.039084 2.21141297 5.039084 4.93932911 0 .07955043-.0019186.15866163-.0057128.23729156.01762 3.20172257.7073202 7.08025253 1.9275447 9.82337933-2.2560001-.6059765-4.3336241-1.6206795-6.2197012-2.9027636.7858573 1.9352671 1.2197012 4.0580658 1.2197012 6.2846124v1.3759257c-.5844145-.3911947-1.2655731-.6491233-2-.7303101v-.0274644c-1.8069195-2.0076884-3.1301415-4.4990742-3.9696661-7.4741576-1.8700152 2.2827499-4.5467932 3.6074691-8.0303339 3.9741576-5.8323009.6139264-10.8165642-.3268829-14.95278969-2.8224281-.67496437 1.6408483-1.04721031 3.4381669-1.04721031 5.3224281v1.0274644c-.7344269.0811868-1.41558553.3391154-2 .7303101v-1.3759257c0-2.2265466.43384394-4.3493453 1.21970115-6.2846124-1.88607701 1.2820841-3.96370107 2.2967871-6.21970115 2.9027636 1.22022445-2.7431268 1.90992466-6.62165676 1.92754471-9.82337933-.00379425-.07862993-.00571281-.15774113-.00571281-.23729156 0-2.72791614 2.25607477-4.93932911 5.03908405-4.93932911 2.74785447 0 4.98200275 2.15589697 5.03800755 4.83620316 2.564424-1.78982958 5.6634017-2.83620316 9.0010765-2.83620316s6.4366525 1.04637358 9.0010765 2.83620316z" fill="#000"/><path d="m7 7c0-2.76142375 2.23857625-5 5-5 1.1988186 0 2.2990965.42190313 3.1604521 1.12532789-3.1063009 1.24734929-5.73905406 3.46047766-7.54577173 6.27848515-.39182257-.7132911-.61468037-1.53252646-.61468037-2.40381304zm23-5c2.7614237 0 5 2.23857625 5 5 0 .87128658-.2228578 1.69052194-.6146804 2.40381304-1.8067176-2.81800749-4.4394708-5.03113586-7.5457717-6.27848515.8613556-.70342476 1.9616335-1.12532789 3.1604521-1.12532789z" fill="#f55d81"/></g></svg>