<svg height="64" viewBox="0 0 64 64" width="64" xmlns="http://www.w3.org/2000/svg"><path d="m25.2604351 3.63073986c3.0945293 1.38675895 5.0603367 4.67273692 4.6178351 8.21275034-.0057458.0459656-.0118945.09188-.0184456.1377378l-.8598246 6.018772c-2.8268359-1.6961016-4.6947517-5.5497735-5.6037473-11.56101578-1.4658881 1.5166447-3.4508432 2.53845929-5.6922765 2.77383609-1.823281.19144684-3.3912724.28717969-4.7039762.28717969-3 0-5.66666667-.5-8-1.5 0 3.6666667-1.33333333 7.1666667-4 10.5l-.9224501-8.53266341c-.53424524-4.94176852 3.03875833-9.38095477 7.98052684-9.91520002.32127571-.03473251.6441889-.05213657.96733659-.05213657h16.97458667c0 1.28440616-.2627226 2.5126441-.7395649 3.63073986z" transform="translate(17 11)"/></svg>