<svg viewBox="0 0 64 64"><path d="M28.394 33.057a.75.75 0 0 1 1.327.649c-.523 1.83.089 2.544 2.279 2.544s2.802-.713 2.279-2.544a.75.75 0 0 1 1.309-.672.5.5 0 0 1 .1.104c.858 1.201 1.522 2.245 1.994 3.135.474.893.907 1.914 1.301 3.065a.5.5 0 1 1-.946.324 20.24 20.24 0 0 0-1.238-2.92c-.24-.452-.534-.95-.883-1.493-.223 1.613-1.589 2.501-3.916 2.501-2.321 0-3.686-.884-3.914-2.488a20.878 20.878 0 0 0-.875 1.48 20.24 20.24 0 0 0-1.238 2.92.5.5 0 0 1-.946-.324c.394-1.15.827-2.172 1.3-3.065.472-.89 1.137-1.934 1.996-3.135a.502.502 0 0 1 .071-.08z"/></svg>