<svg viewBox="0 0 64 64"><g fill="none"><path fill="#456dff" d="M34.996 42.665a3 3 0 0 1-5.992 0A3.5 3.5 0 0 1 27 39.5a2.035 2.035 0 0 1 2.73-1.912c.756.275 1.513.412 2.27.412s1.514-.137 2.27-.412A2.035 2.035 0 0 1 37 39.5a3.5 3.5 0 0 1-2.004 3.165zM33.415 43h-2.83a1.5 1.5 0 0 0 2.83 0z"/><g fill="#fff" transform="translate(23 36)"><path fill-opacity=".26" d="M11.996 6.665a3 3 0 1 0-5.991 0A3.5 3.5 0 0 1 4 3.5a2.035 2.035 0 0 1 2.73-1.912C7.485 1.863 8.242 2 9 2s1.514-.137 2.27-.412A2.035 2.035 0 0 1 14 3.5a3.5 3.5 0 0 1-2.004 3.165zM10.415 7h-2.83a1.5 1.5 0 1 1 2.83 0z"/><circle cx="9" cy="4.5" r="1.5"/></g></g></svg>