<svg height="64" viewBox="0 0 64 64" width="64" xmlns="http://www.w3.org/2000/svg"><g fill="none" transform="translate(23 36)"><path d="m11.9955227 6.66530744c-.085804 1.57997118-1.3941354 2.83469256-2.9955227 2.83469256-1.60138731 0-2.90971875-1.25472138-2.99552273-2.83469256-1.1848868-.56081412-2.00447727-1.76734798-2.00447727-3.16530744 0-1.12373467.91096694-2.03470161 2.03470161-2.03470161.23693829 0 .47205581.04138435.69475388.12228751l.00000503-.00001386c.75684649.27495197 1.51369299.41242796 2.27053948.41242796s1.513693-.13747599 2.2705395-.41242796l.000005.00001386c1.0561972-.38370197 2.223466.16146308 2.607168 1.21766022.0809032.22269807.1222875.4578156.1222875.69475388 0 1.39795946-.8195905 2.60449332-2.0044773 3.16530744zm-1.5808756.33469256h-2.82929425c.20591821.58259619.76153774 1 1.41464715 1s1.2087289-.41740381 1.4146471-1z" fill="#456dff"/><g fill="#fff"><path d="m11.9955227 6.66530744c.002972-.05472515.0044773-.1098405.0044773-.16530744 0-1.65685425-1.3431458-3-3-3-1.65685425 0-3 1.34314575-3 3 0 .05546694.0015053.11058229.00447727.16530744-1.1848868-.56081412-2.00447727-1.76734798-2.00447727-3.16530744 0-1.12373467.91096694-2.03470161 2.03470161-2.03470161.23693829 0 .47205581.04138435.69475388.12228751l.00000503-.00001386c.75684649.27495197 1.51369299.41242796 2.27053948.41242796s1.513693-.13747599 2.2705395-.41242796l.000005.00001386c1.0561972-.38370197 2.223466.16146308 2.607168 1.21766022.0809032.22269807.1222875.4578156.1222875.69475388 0 1.39795946-.8195905 2.60449332-2.0044773 3.16530744zm-1.5808756.33469256h-2.82929425c-.05527574-.15638946-.08535285-.32468229-.08535285-.5 0-.82842712.67157288-1.5 1.5-1.5s1.5.67157288 1.5 1.5c0 .17531771-.0300771.34361054-.0853529.5z" fill-opacity=".26"/><circle cx="9" cy="4.5" r="1.5"/></g></g></svg>