<svg height="64" viewBox="0 0 64 64" width="64" xmlns="http://www.w3.org/2000/svg"><path d="m18.0164837 12.0493851c-.4094224.9819921-1.3785641 1.6722399-2.5089218 1.6722399-.2272113 0-.4535254-.0284998-.6736428-.0848321l-5.08160732-1.3004804c-.53504145-.1369273-.85777671-.6816656-.72084938-1.2167071.08365377-.3268758.32650459-.5895258.64583607-.6984898l5.23487903-1.78627409c1.2434535-.42429803 2.5900187.18545788 3.1043062 1.36982929.5142875-1.18437141 1.8608526-1.79412732 3.1043062-1.36982929l5.234879 1.78627409c.3193315.108964.5621823.371614.6458361.6984898.1369273.5350415-.185808 1.0797798-.7208494 1.2167071l-5.0816073 1.3004804c-.2201174.0563323-.4464315.0848321-.6736428.0848321-1.1303578 0-2.0994995-.6902478-2.5089218-1.6722399z" fill="#dee1f5" transform="translate(14 26)"/></svg>