<svg viewBox="0 0 64 64"><g fill="none"><path fill="#5a45ff" d="M27 49v3a5 5 0 0 0 10 0v-3l6.647 2.045A9 9 0 0 1 50 59.647V64H14v-4.353a9 9 0 0 1 6.353-8.602z"/><path fill="#000" d="M42 50.538l1.647.507A8.99 8.99 0 0 1 46 52.163V64h-4zM38 64h-4v-5.29a7.017 7.017 0 0 0 4-3.102zm-8 0h-4v-8.392a7.017 7.017 0 0 0 4 3.102zm-8 0h-4V52.163a8.99 8.99 0 0 1 2.353-1.118L22 50.538z" opacity=".404"/><path fill="#fff" d="M47.068 53a9.013 9.013 0 0 1 2.535 4H36.899a6.982 6.982 0 0 0 2.03-4zM50 61v3H14v-3zm-35.603-4a9.013 9.013 0 0 1 2.535-4h8.139a6.982 6.982 0 0 0 2.03 4z" opacity=".18"/></g></svg>