<svg height="64" viewBox="0 0 64 64" width="64" xmlns="http://www.w3.org/2000/svg"><path d="m4.71151247 5.73717082c-.13098583.39295749-.55572581.60532748-.94868329.47434165-.39295749-.13098583-.60532748-.55572581-.47434165-.94868329.43365657-1.30096973 1.38280251-2.01282918 2.71151247-2.01282918s2.2778559.71185945 2.71151247 2.01282918c.13098583.39295748-.08138416.81769746-.47434165.94868329-.39295748.13098583-.81769746-.08138416-.94868329-.47434165-.2330101-.69903027-.61719749-.98717082-1.28848753-.98717082s-1.05547743.28814055-1.28848753.98717082zm12.00000003 0c-.1309859.39295749-.5557258.60532748-.9486833.47434165s-.6053275-.55572581-.4743417-.94868329c.4336566-1.30096973 1.3828025-2.01282918 2.7115125-2.01282918s2.2778559.71185945 2.7115125 2.01282918c.1309858.39295748-.0813842.81769746-.4743417.94868329s-.8176974-.08138416-.9486833-.47434165c-.2330101-.69903027-.6171975-.98717082-1.2884875-.98717082s-1.0554774.28814055-1.2884875.98717082z" fill="#1b0640" transform="translate(20 24)"/></svg>