<svg height="64" viewBox="0 0 64 64" width="64" xmlns="http://www.w3.org/2000/svg"><path d="m16.0038611 5.36824314c-.4795175-.27400997-.6461142-.88486463-.3721042-1.36438208.2740099-.47951744.8848646-.64611417 1.364382-.3721042.437415.24995143.851436.36824314 1.2538611.36824314s.8164461-.11829171 1.2538611-.36824314c.4795174-.27400997 1.0903721-.10741324 1.364382.3721042.27401.47951745.1074133 1.09037211-.3721042 1.36438208-.7292516.41671524-1.4818973.63175686-2.2461389.63175686s-1.5168873-.21504162-2.2461389-.63175686zm-12.00000004 0c-.47951744-.27400997-.64611417-.88486463-.3721042-1.36438208.27400997-.47951744.88486463-.64611417 1.36438208-.3721042.437415.24995143.851436.36824314 1.25386106.36824314s.81644606-.11829171 1.25386106-.36824314c.47951745-.27400997 1.09037211-.10741324 1.36438208.3721042.27400997.47951745.10741324 1.09037211-.3721042 1.36438208-.72925167.41671524-1.48189734.63175686-2.24613894.63175686s-1.51688727-.21504162-2.24613894-.63175686z" fill="#1b0640" transform="translate(20 24)"/></svg>