<svg height="64" viewBox="0 0 64 64" width="64" xmlns="http://www.w3.org/2000/svg"><g fill="#1b0640" transform="translate(20 24)"><path d="m6 6c-.82842712 0-1.5-.67157288-1.5-1.5s.67157288-1.5 1.5-1.5 1.5.67157288 1.5 1.5-.67157288 1.5-1.5 1.5zm12 0c-.8284271 0-1.5-.67157288-1.5-1.5s.6715729-1.5 1.5-1.5 1.5.67157288 1.5 1.5-.6715729 1.5-1.5 1.5z"/><path d="m3 2h6v6h-6zm12 0h6v6h-6z" opacity=".800525"/><path d="m13 1.05263158c1.5 0 2.5-1.05263158 5-1.05263158 1.6666667 0 3.3333333.35087719 5 1.05263158l1 .52631579v1.57894737l-1 .52631579v3.15789473c0 1.74405711-1.3431458 3.15789474-3 3.15789474h-4c-1.6568542 0-3-1.41383763-3-3.15789474v-3.68421052h-2v3.68421052c0 1.74405711-1.34314575 3.15789474-3 3.15789474h-4c-1.65685425 0-3-1.41383763-3-3.15789474v-3.15789473l-1-.52631579v-1.57894737l1-.52631579c1.66666667-.70175439 3.33333333-1.05263158 5-1.05263158 2.5 0 3.5 1.05263158 5 1.05263158zm-4.75745553 1.47091221c-.84392684-.29611469-1.42421509-.41828063-2.24254447-.41828063-.99463022 0-1.99328328.14885042-3 .44944988v4.28739222c0 .58135237.44771525 1.05263158 1 1.05263158h4c.55228475 0 1-.47127921 1-1.05263158v-4.05129341c-.20860871-.06967102-.44687709-.15474122-.75745553-.26726806zm7.51491103 0c-.3105784.11252684-.5488468.19759704-.7574555.26726806v4.05129341c0 .58135237.4477153 1.05263158 1 1.05263158h4c.5522847 0 1-.47127921 1-1.05263158v-4.28739222c-1.0067167-.30059946-2.0053698-.44944988-3-.44944988-.8183294 0-1.3986176.12216594-2.2425445.41828063z"/></g></svg>