<svg viewBox="0 0 64 64"><path d="M46 28a16 16 0 0 1-.021-.023 2 2 0 0 1-2.104-2.855 2 2 0 0 1-2.729-2.095 2 2 0 0 1-3.303.553l-.012.005v.042a2 2 0 0 1-3.752.965 2 2 0 0 1-3.922.333 2 2 0 0 1-3.865-.598 23.239 23.239 0 0 1-.131-.022 2 2 0 0 1-3.676-.981 20.21 20.21 0 0 1-.83-.326 2 2 0 0 1-2.725 2.123 2 2 0 0 1-.93 2.68v.226A4.5 4.5 0 0 0 18.58 37 14.036 14.036 0 0 0 27 46.081v3.062a3.483 3.483 0 0 1-.652-.68c-.484-.137-.961-.29-1.43-.46a3.46 3.46 0 0 1-2.719-.138 3.461 3.461 0 0 1-1.816-2.166 20.882 20.882 0 0 1-.987-.707 3.462 3.462 0 0 1-2.742-.912 3.464 3.464 0 0 1-1.087-2.877c-.17-.217-.334-.438-.495-.661a3.465 3.465 0 0 1-2.604-1.712 3.467 3.467 0 0 1-.062-3.358c-.046-.13-.092-.26-.136-.39a3.47 3.47 0 0 1-1.077-5.965v-.009a3.47 3.47 0 0 1 .471-6.196 3.47 3.47 0 0 1 2.272-5.788 3.47 3.47 0 0 1 3.876-4.861A3.47 3.47 0 0 1 22.95 8.76a3.47 3.47 0 0 1 5.941-1.833 3.47 3.47 0 0 1 6.218 0A3.47 3.47 0 0 1 41.05 8.76a3.47 3.47 0 0 1 5.138 3.503 3.47 3.47 0 0 1 3.876 4.86 3.47 3.47 0 0 1 2.272 5.789 3.47 3.47 0 0 1 .471 6.196v.01a3.47 3.47 0 0 1-1.077 5.965c-.044.13-.09.26-.136.389a3.467 3.467 0 0 1-.062 3.358 3.465 3.465 0 0 1-2.604 1.712c-.16.223-.326.444-.495.661a3.464 3.464 0 0 1-1.087 2.877 3.462 3.462 0 0 1-2.742.912c-.322.245-.651.48-.987.707a3.461 3.461 0 0 1-1.816 2.166 3.46 3.46 0 0 1-2.719.138c-.469.17-.946.323-1.43.46a3.483 3.483 0 0 1-.652.68v-3.062a14.036 14.036 0 0 0 8.42-9.082l.08.001a4.5 4.5 0 0 0 .5-8.973z"/></svg>