<svg viewBox="0 0 64 64"><path d="M46 28c-1.412-1.57-2.53-3.434-3.35-5.595-3.192 1.086-6.742 1.629-10.65 1.629-4.848 0-9.145-.836-12.89-2.506A13.955 13.955 0 0 0 18 27v1.027a4.474 4.474 0 0 0-2 .73v-1.375C16 18.334 23.163 11 32 11s16 7.334 16 16.382v1.376a4.474 4.474 0 0 0-2-.73zm-9 20.06v-1.98A14.036 14.036 0 0 0 45.42 37h.08a4.48 4.48 0 0 0 2.5-.758v6.376c0 .477-.02.949-.059 1.415-3.647 2.044-7.294 3.386-10.941 4.028zm-10 0c-3.647-.64-7.294-1.983-10.941-4.027A16.99 16.99 0 0 1 16 42.618v-6.376a4.48 4.48 0 0 0 2.58.757A14.036 14.036 0 0 0 27 46.081z"/></svg>