<svg viewBox="0 0 64 64"><g fill="none"><path fill="#000" d="M44.544 20.777C42.254 16.167 37.497 13 32 13c-5.497 0-10.254 3.168-12.544 7.777a2 2 0 0 1 .551-2.376v-.005a2 2 0 0 1 .271-3.571 2 2 0 0 1 1.31-3.337 2 2 0 0 1 2.234-2.802 2 2 0 0 1 2.961-2.019 2 2 0 0 1 3.425-1.056 2 2 0 0 1 3.584 0 2 2 0 0 1 3.425 1.056 2 2 0 0 1 2.961 2.02 2 2 0 0 1 2.235 2.801 2 2 0 0 1 1.309 3.337 2 2 0 0 1 .272 3.571v.005a2 2 0 0 1 .55 2.376z"/><path fill="#f55d81" d="M45.934 25.632C43.828 20.564 38.83 17 33 17h-2c-5.83 0-10.828 3.564-12.934 8.632C18.753 18.542 24.73 13 32 13s13.247 5.542 13.934 12.632z"/></g></svg>