<svg viewBox="0 0 64 64"><path d="M33.792 9a2 2 0 0 1 3.816 0h.558a2 2 0 0 1 3.83.668c.075.03.15.063.224.095a2 2 0 0 1 3.13 2.298l.152.179a2 2 0 0 1 1.775 3.41c.042.156.08.314.114.473a2 2 0 0 1 .018 3.748l-.047.324a2 2 0 0 1-.022 3.62 1.994 1.994 0 0 1 .159.852 1.8 1.8 0 0 1-1.22 2.924L46 29.5c-.44-.659-.842-1.48-1.209-2.465a1.797 1.797 0 0 1-.437-.796 1.998 1.998 0 0 1-.563-2.679 38.655 38.655 0 0 1-.022-.098 2 2 0 0 1-.956-2.937 1.994 1.994 0 0 1-2.44-.323 2 2 0 0 1-3.724.057l-.312.032a2 2 0 0 1-3.573.203l-.23.003a2 2 0 0 1-3.521-.099 36.13 36.13 0 0 1-.41-.031 2 2 0 0 1-3.676-.165 1.997 1.997 0 0 1-3.04-.22 19.96 19.96 0 0 1-.023.155 2 2 0 0 1-.701 3.35 2 2 0 0 1-1.397 3.095A24.897 24.897 0 0 1 18 29.5l-.188-1.923a1.8 1.8 0 0 1-.338-3.465l-.012-.126a2 2 0 0 1-.38-3.889l-.013-.144a2 2 0 0 1 .067-3.92 8.93 8.93 0 0 1 .041-.177 2 2 0 0 1 1.46-3.627 2 2 0 0 1 3.066-2.326 2 2 0 0 1 3.835-.894 9 9 0 0 1 .052-.003A2 2 0 0 1 29.408 9h.184a2 2 0 0 1 3.816 0z"/></svg>