<svg viewBox="0 0 64 64"><g fill="none"><path fill="#362c47" d="M41.001 13.836C41.057 11.156 43.291 9 46.04 9c2.783 0 5.04 2.211 5.04 4.94 0 .079-.003.158-.007.237.018 3.201.708 7.08 1.928 9.823-2.256-.606-4.334-1.62-6.22-2.903A16.67 16.67 0 0 1 48 27.382v1.376a4.474 4.474 0 0 0-2-.73V28c-1.807-2.008-3.13-4.5-3.97-7.474-1.87 2.283-4.546 3.607-8.03 3.974-5.832.614-10.817-.327-14.953-2.822A13.959 13.959 0 0 0 18 27v1.027a4.474 4.474 0 0 0-2 .73v-1.375c0-2.227.434-4.35 1.22-6.285C15.334 22.38 13.256 23.394 11 24c1.22-2.743 1.91-6.622 1.928-9.823a4.923 4.923 0 0 1-.006-.238C12.922 11.211 15.178 9 17.96 9c2.748 0 4.982 2.156 5.038 4.836C25.563 12.046 28.662 11 32 11s6.437 1.046 9.001 2.836z"/><path fill="#fff" d="M41.013 13.582C45.213 16.545 48 21.767 48 27.714v1.044a4.474 4.474 0 0 0-2-.73V28c-1.807-2.008-3.13-4.5-3.97-7.474-1.87 2.283-4.546 3.607-8.03 3.974-5.832.614-10.817-.327-14.953-2.822A13.959 13.959 0 0 0 18 27v1.027a4.474 4.474 0 0 0-2 .73v-1.043c0-5.947 2.788-11.17 6.987-14.132.006.084.01.169.012.254C25.563 12.046 28.662 11 32 11s6.437 1.046 9.001 2.836c.002-.085.006-.17.012-.254z" opacity=".259"/><path fill="#f55d81" d="M18 16a5 5 0 0 1 8.16-3.875c-3.106 1.248-5.739 3.46-7.545 6.279A4.978 4.978 0 0 1 18 16zm23-5a5 5 0 0 1 4.385 7.404c-1.806-2.818-4.44-5.031-7.545-6.279A4.98 4.98 0 0 1 41 11z"/></g></svg>