<svg height="64" viewBox="0 0 64 64" width="64" xmlns="http://www.w3.org/2000/svg" xmlns:xlink="http://www.w3.org/1999/xlink"><defs><path id="a" d="m23 33.0807424v5.9192576c0 2.7614237-2.2385763 5-5 5s-5-2.2385763-5-5v-5.9192576c-4.03776277-1.5443264-7.17755008-4.9044416-8.42044769-9.0814314-.02646239.0004587-.05298045.000689-.07955231.000689-2.48528137 0-4.5-2.0147186-4.5-4.5 0-2.3162768 1.75002477-4.2238135 4-4.4725356v-1.0274644c0-7.7319865 6.2680135-14 14-14s14 6.2680135 14 14v1.0274644c2.2499752.2487221 4 2.1562588 4 4.4725356 0 2.4852814-2.0147186 4.5-4.5 4.5-.0265719 0-.0530899-.0002303-.0795523-.000689-1.2428976 4.1769898-4.3826849 7.537105-8.4204477 9.0814314z"/><mask id="b" fill="#fff"><use fill="none" xlink:href="#a"/></mask></defs><g fill="none" fill-rule="nonzero" transform="translate(14 13)"><use fill="#92594b" xlink:href="#a"/><rect fill="#fff" height="34" mask="url(#b)" opacity=".363979" rx="14" width="28" x="4"/></g></svg>