<svg height="64" viewBox="0 0 64 64" width="64" xmlns="http://www.w3.org/2000/svg" xmlns:xlink="http://www.w3.org/1999/xlink"><defs><path id="a" d="m13 0v3c0 2.76142375 2.2385763 5 5 5s5-2.23857625 5-5v-3l6.6467726 2.04516081c3.7763247 1.16194604 6.3532274 4.65096738 6.3532274 8.60201109v4.3528281h-36v-4.3528281c0-3.95104371 2.57690273-7.44006505 6.35322736-8.60201109z"/><mask id="b" fill="#fff"><use fill="none" xlink:href="#a"/></mask></defs><g fill="none" fill-rule="nonzero" transform="translate(14 49)"><use fill="#5a45ff" xlink:href="#a"/><path d="m28 1.53846154 1.6467726.50669927c.8504923.26168993 1.6401467.64141533 2.3532274 1.11787057v11.83696862h-4zm-4 13.46153846h-4v-5.28987868c1.6881522-.50241865 3.109416-1.62452738 4-3.10253471zm-8 0h-4v-8.39241339c.890584 1.47800733 2.3118478 2.60011606 4 3.10253471zm-8 0h-4v-11.83696862c.71308071-.47645524 1.5027351-.85618064 2.35322736-1.11787057l1.64677264-.50669927z" fill="#000" mask="url(#b)" opacity=".404413"/><path d="m33.0680903 4c1.1803706 1.0782521 2.0601389 2.45888102 2.5345109 4h-12.7036185c1.0718046-1.0502841 1.807337-2.4424404 2.0301284-4zm2.9319097 8v3h-36v-3zm-35.60260116-4c.474372-1.54111898 1.35414028-2.9217479 2.53451087-4h8.13897919c.2227914 1.5575596.9583238 2.9497159 2.0301284 4z" fill="#fff" opacity=".180315"/></g></svg>