<svg height="64" viewBox="0 0 64 64" width="64" xmlns="http://www.w3.org/2000/svg" xmlns:xlink="http://www.w3.org/1999/xlink"><defs><path id="a" d="m4.39435865 5.0572762c.18016735-.24641135.50104627-.36717228.8116822-.27841916.39827626.11379322.62889533.52890755.51510211.92718381-.52300609 1.8305213.08851207 2.54395915 2.27885704 2.54395915 2.190345 0 2.8018631-.71343785 2.278857-2.54395915-.1137932-.39827626.1168259-.81339059.5151022-.92718381.3007557-.08593021.6111132.02453783.7940685.25529085.0370526.02890916.0706205.06357043.0993341.10375579.8582732 1.20116979 1.5230714 2.24540021 1.9949856 3.13521336.4733436.89250835.9066348 1.91408456 1.3006137 3.06494176.0894377.2612576-.0498499.5455522-.3111074.6349899-.2612576.0894376-.5455523-.0498499-.6349899-.3111075-.3776682-1.1032118-.7905685-2.07671209-1.2379606-2.92028774-.2394916-.4515711-.5339653-.94927695-.8833313-1.49273435-.2227497 1.61274699-1.5880842 2.50108089-3.9155719 2.50108089-2.32138763 0-3.68565883-.88368357-3.91379691-2.48841538-.34580341.538527-.63756394 1.03200806-.87519389 1.48006884-.44739206.84357565-.86029231 1.81707594-1.23796053 2.92028774-.08943766.2612576-.37373231.4005451-.63498988.3111075-.26125756-.0894377-.40054512-.3737323-.31110746-.6349899.39397892-1.1508572.82727007-2.17243341 1.30061369-3.06494176.47191422-.88981315 1.13671242-1.93404357 1.99498558-3.13521336.02142343-.02998251.04554904-.0568899.07180805-.08062748z"/><mask id="b" fill="#fff"><use fill="none" xlink:href="#a"/></mask></defs><g fill="none" fill-rule="nonzero" transform="translate(24 28)"><use fill="#623d36" xlink:href="#a"/><path d="m4.39435865 5.0572762c-.05083097.06952052-.09046152.14904262-.11550161.23668295-.21182562.74138967-.27339808 1.39966826-.19265395 1.96762547-.34580341.538527-.63756394 1.03200806-.87519389 1.48006884-.44739206.84357565-.86029231 1.81707594-1.23796053 2.92028774-.08943766.2612576-.37373231.4005451-.63498988.3111075-.26125756-.0894377-.40054512-.3737323-.31110746-.6349899.39397892-1.1508572.82727007-2.17243341 1.30061369-3.06494176.47191422-.88981315 1.13671242-1.93404357 1.99498558-3.13521336.02142343-.02998251.04554904-.0568899.07180805-.08062748zm7.52121325 2.19164291c.0780466-.56507119.015824-1.21907481-.1944289-1.95495996-.027863-.09752053-.0737917-.18498922-.1331153-.25981126.0370526.02890916.0706205.06357043.0993341.10375579.8582732 1.20116979 1.5230714 2.24540021 1.9949856 3.13521336.4733436.89250835.9066348 1.91408456 1.3006137 3.06494176.0894377.2612576-.0498499.5455522-.3111074.6349899-.2612576.0894376-.5455523-.0498499-.6349899-.3111075-.3776682-1.1032118-.7905685-2.07671209-1.2379606-2.92028774-.2394916-.4515711-.5339653-.94927695-.8833313-1.49273435z" fill="#fff" mask="url(#b)" opacity=".160621"/></g></svg>