<svg viewBox="0 0 64 64"><g fill="none"><g fill="#000"><path d="M32 19.002c3.881 0 7.548-.376 11 4.218l-1.9 6.493c-.611 1.227-1.636 1.558-2.463.795-2.09-1.929-4.302-2.893-6.637-2.893s-4.547.964-6.637 2.893c-.827.763-1.852.432-2.462-.795L21 23.22c3.452-4.594 7.119-4.218 11-4.218z" opacity=".203"/><path d="M29.292 13.206a3 3 0 0 1 5.416 0c6.1.957 10.809 5.236 11.292 12.711a27.685 27.685 0 0 0-3.96-1.302l-.94.602a2 2 0 0 1-2.463.462C36.547 24.559 34.335 24 32 24s-4.547.56-6.637 1.679a2 2 0 0 1-2.462-.462l-.94-.602A27.685 27.685 0 0 0 18 25.917c.483-7.475 5.192-11.754 11.292-12.71z"/><path d="M21.96 24.615A27.685 27.685 0 0 0 18 25.917C18.553 17.367 24.632 13 32 13s13.447 4.368 14 12.917a27.685 27.685 0 0 0-3.96-1.302L43 24c-3.452-2.667-7.119-4-11-4s-7.548 1.333-11 4z" opacity=".279"/></g><path fill="#fff" d="M41.448 24.994l-.349.223a2 2 0 0 1-2.462.462C36.547 24.559 34.335 24 32 24s-4.547.56-6.637 1.679a2 2 0 0 1-2.462-.462l-.349-.223c.866.068 2.183-.479 2.811-.815 2.09-1.12 4.302-1.679 6.637-1.679s4.547.56 6.637 1.679c.628.336 1.945.883 2.811.815z" opacity=".203"/></g></svg>