<svg viewBox="0 0 64 64"><path d="M37 13.92c5.263 2.012 9 7.11 9 13.08v1c-.887-2.07-1.942-3.711-3.165-4.926-1.834-1.823-3.335-.694-4.526-2.522-.795-1.219-1.231-3.43-1.309-6.633z" opacity=".298"/><path d="M14.567 47.184a5.642 5.642 0 0 1-2.93.816H10.5c2.773-2.536 4.562-5.795 5.367-9.777.047-.632.091-1.292.133-1.98a4.48 4.48 0 0 0 2.58.756A14.036 14.036 0 0 0 27 46.081V49a9.403 9.403 0 0 1-9.439 9.531L9.5 58.5c2.667-5.484 4.333-9.189 5-11.113.023-.066.045-.133.067-.203zM32.653 25.09C28.466 28.4 16 27.256 16 33.568V27.5C16 18.387 23.163 11 32 11c4.84 0 5.683 2.647 5.457 6.23-.188 2.99-.617 4.546-4.804 7.859z"/></svg>