<svg viewBox="0 0 64 64"><path d="M18.996 21.804C21.059 16.644 26.104 13 32 13s10.94 3.645 13.004 8.804c.079.063.157.127.235.192a1 1 0 0 1 .338.54l.627 2.64a.5.5 0 0 1-.774.523C40.989 22.566 36.512 21 32 21c-4.513 0-8.985 1.567-13.417 4.702a.5.5 0 0 1-.775-.522l.616-2.64a1 1 0 0 1 .338-.546l.234-.19z"/><path d="M32 17c4.779 0 9.192 1.665 13.24 4.996a1 1 0 0 1 .337.54l.627 2.64a.5.5 0 0 1-.774.523C40.989 22.566 36.512 21 32 21c-4.513 0-8.985 1.567-13.417 4.702a.5.5 0 0 1-.775-.522l.616-2.64a1 1 0 0 1 .338-.546C22.81 18.664 27.222 17 32 17z" opacity=".255"/></svg>