<svg viewBox="0 0 64 64"><g fill="none" transform="translate(18 8)"><circle cx="14" cy="6" r="4" fill="#5a45ff"/><g fill="#000"><path d="M17.67 14.5l.054-7.663c2.136-.013 3.207-.013 3.214 0C25.157 9.25 28 13.792 28 19v3c-1.333-1.667-2.667-4.667-4-9-.496.25-2.606.75-6.33 1.5zm-7.34 0C6.606 13.75 4.496 13.25 4 13c-1.333 4.333-2.667 7.333-4 9v-3c0-5.208 2.843-9.751 7.062-12.163h3.27z" opacity=".303"/><path d="M10.014 4.572C10.188 2.012 11.906 0 14 0c2.085 0 3.798 1.994 3.983 4.54.735.393 1.46.897 2.176 1.512a3 3 0 0 1 1.04 2.14l.098 2.17a4 4 0 0 1-3.13 4.086C16.51 14.816 15.12 15 14 15c-1.132 0-2.564-.192-4.294-.576a3.872 3.872 0 0 1-3.016-4.145l.208-2.2a3 3 0 0 1 .964-1.932 11.545 11.545 0 0 1 2.152-1.575zm.317-.169C11.516 3.801 12.738 3.5 14 3.5c1.244 0 2.462.29 3.655.872a4 4 0 0 0-7.324.031z"/><path d="M10.015 4.56C10.193 2.005 11.91 0 14 0c2.066 0 3.765 1.957 3.978 4.469a10.96 10.96 0 0 0-.354-.165 4 4 0 0 0-7.286.085 9.194 9.194 0 0 0-.323.171z" opacity=".218"/></g></g></svg>