<svg viewBox="0 0 64 64"><linearGradient id="a" x1="50%" x2="50%" y1="0%" y2="100%"><stop offset="0"/><stop offset="1" stop-opacity="0"/></linearGradient><g fill="none"><path fill="url(#a)" d="M28 15v2c-1.323-3.514-3.06-5.389-3.759-6-1.048-.917-2.478-1.795-3.35-3.731-.57-1.268-.474-2.94-.393-4.673A13.998 13.998 0 0 1 28 15zM0 15v2c1.323-3.514 3.06-5.389 3.759-6 1.048-.917 2.478-1.795 3.35-3.731.57-1.268.474-2.94.393-4.673A13.998 13.998 0 0 0 0 15z" transform="translate(18 12)"/><path fill="#000" d="M27.977 13.226L40 12a6.838 6.838 0 0 1-6.487 9h-6.216a3 3 0 0 1-3-3v-.7a4.096 4.096 0 0 1 3.68-4.074z"/></g></svg>