<svg viewBox="0 0 64 64"><g fill="none"><path fill="#000" d="M32.034 10c2.746 0 4.217 1.437 4.842 2.052.563.54.968 1.313 1.112 2.14l.663 4.17c.354 1.942-.698 3.665-2.526 4.086C34.5 22.816 33.12 23 32 23c-1.132 0-2.553-.192-4.244-.576-1.832-.423-2.834-2.2-2.375-4.145l.786-4.2a3.972 3.972 0 0 1 1.035-1.932c.624-.642 2.086-2.147 4.832-2.147z"/><path fill="#fff" d="M36.876 12.052c.563.54.968 1.313 1.112 2.14l.663 4.17c.354 1.942-.698 3.665-2.526 4.086C34.5 22.816 33.12 23 32 23c-1.132 0-2.553-.192-4.244-.576-1.832-.423-2.834-2.2-2.375-4.145l.786-4.2a3.972 3.972 0 0 1 1.035-1.932 7.75 7.75 0 0 1 1.25-1.082c-.316.488-1.452.987-1.452 2.435V17c-.322 1.645.73 3.154 2.017 3.513 1.187.325 2.186.487 2.981.487.787 0 1.757-.156 2.898-.467 1.285-.356 2.352-1.89 2.104-3.533v-3c0-1.5-1.105-2.544-1.5-3a1.47 1.47 0 0 0-.136-.14c.726.42 1.215.9 1.512 1.192z" opacity=".257"/></g></svg>