<svg viewBox="0 0 64 64"><g fill="none"><path fill="#000" d="M17.79 27.558l-.712-6.59A9 9 0 0 1 26.025 11H43a9.237 9.237 0 0 1-.74 3.63 7.926 7.926 0 0 1 4.6 8.351L46 29l-.002-.001v4.222a14.005 14.005 0 0 1-.476 3.42l-2.523.539a1 1 0 0 1-1.188-1.182l1.899-9.114c-1.574-2.093-2.678-5.242-3.314-9.445a9.238 9.238 0 0 1-5.692 2.774c-1.823.191-3.391.287-4.704.287-3 0-5.667-.5-8-1.5 0 2.59-.666 5.098-1.997 7.523l1.974 9.475a1 1 0 0 1-1.188 1.182l-2.522-.538a14.005 14.005 0 0 1-.477-3.421z"/><path fill="#fff" d="M20.003 26.523l1.974 9.475a1 1 0 0 1-1.188 1.182l-2.522-.538a14.005 14.005 0 0 1-.477-3.421v-5.664l-.712-6.59A9 9 0 0 1 26.025 11H43a9.237 9.237 0 0 1-2.604 6.439 9.238 9.238 0 0 1-5.692 2.774c-1.823.191-3.391.287-4.704.287-3 0-5.667-.5-8-1.5 0 2.59-.666 5.098-1.997 7.523zm25.995 2.476v4.222a14.005 14.005 0 0 1-.476 3.42l-2.523.539a1 1 0 0 1-1.188-1.182l1.899-9.114c-1.149-1.528-2.047-3.618-2.696-6.27a9.288 9.288 0 0 0 3.45-4.506 7.91 7.91 0 0 1 2.396 6.873L46 29z" opacity=".259"/></g></svg>